HIERARCHY
ROOT root
{
	OFFSET 0.000000 0.000000 0.000000
	CHANNELS 6 Xposition Yposition Zposition Zrotation Yrotation Xrotation
	JOINT lhip
	{
		OFFSET 0.058581 -0.082280 -0.017664
		CHANNELS 3 Zrotation Yrotation Xrotation
		JOINT lknee
		{
			OFFSET 0.043451 -0.386469 0.008037
			CHANNELS 3 Zrotation Yrotation Xrotation
			JOINT lankle
			{
				OFFSET -0.014790 -0.426874 -0.037428
				CHANNELS 3 Zrotation Yrotation Xrotation
				JOINT ltoe
				{
					OFFSET 0.041054 -0.060286 0.122042
					CHANNELS 3 Zrotation Yrotation Xrotation
					End Site
					{
						OFFSET 0.000000 0.000000 0.000000
					}
				}
			}
		}
	}
	JOINT rhip
	{
		OFFSET -0.060310 -0.090513 -0.013543
		CHANNELS 3 Zrotation Yrotation Xrotation
		JOINT rknee
		{
			OFFSET -0.043257 -0.383688 -0.004843
			CHANNELS 3 Zrotation Yrotation Xrotation
			JOINT rankle
			{
				OFFSET 0.019056 -0.420046 -0.034562
				CHANNELS 3 Zrotation Yrotation Xrotation
				JOINT rtoe
				{
					OFFSET -0.034840 -0.062106 0.130323
					CHANNELS 3 Zrotation Yrotation Xrotation
					End Site
					{
						OFFSET 0.000000 0.000000 0.000000
					}
				}
			}
		}
	}
	JOINT lowerback
	{
		OFFSET 0.004439 0.124404 -0.038385
		CHANNELS 3 Zrotation Yrotation Xrotation
		JOINT upperback
		{
			OFFSET 0.004488 0.137956 0.026820
			CHANNELS 3 Zrotation Yrotation Xrotation
			JOINT chest
			{
				OFFSET -0.002265 0.056032 0.002855
				CHANNELS 3 Zrotation Yrotation Xrotation
				JOINT lowerneck
				{
					OFFSET -0.013390 0.211636 -0.033468
					CHANNELS 3 Zrotation Yrotation Xrotation
					JOINT upperneck
					{
						OFFSET 0.010113 0.088937 0.050410
						CHANNELS 3 Zrotation Yrotation Xrotation
						End Site
						{
							OFFSET 0.000000 0.000000 0.000000
						}
					}
				}
				JOINT lclavicle
				{
					OFFSET 0.071702 0.114000 -0.018898
					CHANNELS 3 Zrotation Yrotation Xrotation
					JOINT lshoulder
					{
						OFFSET 0.122921 0.045205 -0.019046
						CHANNELS 3 Zrotation Yrotation Xrotation
						JOINT lelbow
						{
							OFFSET 0.255332 -0.015649 -0.022946
							CHANNELS 3 Zrotation Yrotation Xrotation
							JOINT lwrist
							{
								OFFSET 0.265709 0.012698 -0.007375
								CHANNELS 3 Zrotation Yrotation Xrotation
								End Site
								{
									OFFSET 0.000000 0.000000 0.000000
								}
							}
						}
					}
				}
				JOINT rclavicle
				{
					OFFSET -0.082954 0.112472 -0.023707
					CHANNELS 3 Zrotation Yrotation Xrotation
					JOINT rshoulder
					{
						OFFSET -0.113228 0.046853 -0.008472
						CHANNELS 3 Zrotation Yrotation Xrotation
						JOINT relbow
						{
							OFFSET -0.260127 -0.014369 -0.031269
							CHANNELS 3 Zrotation Yrotation Xrotation
							JOINT rwrist
							{
								OFFSET -0.269108 0.006794 -0.006027
								CHANNELS 3 Zrotation Yrotation Xrotation
								End Site
								{
									OFFSET 0.000000 0.000000 0.000000
								}
							}
						}
					}
				}
			}
		}
	}
}
MOTION
Frames: 5
Frame Time: 0.033333
-0.217416 0.180703 0.943473 81.899780 -1.644984 94.571762 9.428124 -3.165660 -36.107731 -1.611317 5.727911 25.524852 -1.521555 5.930828 -12.057769 0.000000 -0.000000 0.000000 -0.421146 1.622480 -4.971521 -0.304595 0.837194 25.116387 -2.389652 -8.059699 -31.779962 0.000000 -0.000000 0.000000 -0.617514 1.340343 8.244406 1.347444 -5.928828 2.574903 0.319908 -2.986894 0.973037 -4.207515 6.296413 -3.479993 0.952835 8.366864 -8.987708 -19.668911 -2.012413 8.276860 -56.210634 -4.484267 10.662834 28.543813 -73.933545 -7.063123 20.392784 -19.533214 -27.035459 13.942436 4.078427 4.145836 51.581348 5.839845 14.039498 1.462086 62.103128 19.286262 1.111735 20.071594 -26.132496 
-0.232853 0.176095 0.949505 82.885056 -1.857852 94.404443 8.471259 -3.857043 -34.878539 -2.663491 4.998304 31.372749 -0.666938 6.391768 -14.440616 0.000000 -0.000000 0.000000 -0.125790 1.685113 -4.767211 -0.007755 0.762876 22.862979 -2.508985 -8.792660 -30.329094 0.000000 -0.000000 0.000000 -0.537575 1.684651 8.219623 1.498551 -5.911573 2.741189 0.303809 -2.953178 1.127947 -4.220428 5.661096 -3.515387 0.935200 7.840702 -8.863076 -19.726446 -2.636938 8.634434 -57.033388 -4.186105 10.661946 20.834847 -67.550552 -1.324965 22.202631 -17.998871 -26.847946 14.076884 4.432684 4.151795 52.041025 5.667519 14.404040 0.433007 59.313180 18.375623 0.930294 19.421665 -25.462767 
-0.246679 0.172237 0.954270 83.802437 -1.932811 94.297997 7.609714 -4.363560 -33.129743 -3.606719 4.541023 36.716283 -0.200613 6.818337 -16.623333 0.000000 -0.000000 0.000000 0.158696 1.936219 -4.773102 0.272485 0.566990 21.181099 -2.401362 -9.243831 -28.962202 0.000000 -0.000000 0.000000 -0.384558 1.751803 8.078516 1.644773 -5.870445 2.778466 0.224771 -2.853082 1.127116 -3.885504 5.431214 -3.393864 0.719043 7.220669 -8.291133 -19.908899 -3.015923 8.766580 -57.271182 -3.848577 10.367757 15.597240 -60.799562 3.465386 21.478056 -18.132957 -24.435228 14.465504 4.893366 4.219406 52.234191 5.802629 14.776517 0.743247 55.610686 19.155411 1.417399 19.112849 -24.663388 
-0.259124 0.168943 0.958342 84.752264 -2.027204 94.213150 6.682699 -5.060705 -30.675736 -4.173041 4.191679 40.776962 -0.002285 7.439272 -18.277311 0.000000 -0.000000 0.000000 0.409450 2.161773 -4.816492 0.404480 0.307390 19.768898 -2.243216 -9.596725 -27.738391 0.000000 -0.000000 0.000000 -0.383477 1.677386 7.753366 1.782669 -5.848401 2.997187 0.196089 -2.771447 0.854068 -3.458863 5.443336 -3.092293 0.406310 6.531910 -7.556206 -20.013065 -3.294193 8.870127 -57.398478 -3.613967 10.050612 12.159777 -53.898713 6.717319 18.699764 -18.233936 -22.125529 15.094447 5.450937 4.366962 52.419755 6.160047 15.190122 1.074700 51.191629 19.955506 2.746233 18.963398 -23.663005 
-0.269928 0.166606 0.961643 85.821372 -2.144946 94.101920 5.582131 -5.946598 -27.610008 -4.549154 3.293299 43.193019 0.109447 8.281446 -19.486085 0.000000 -0.000000 0.000000 0.575177 2.301658 -4.703123 0.502309 0.110730 18.368040 -2.042787 -10.014624 -26.620662 0.000000 -0.000000 0.000000 -0.371271 1.541270 7.267094 1.873675 -5.846106 3.341978 0.167093 -2.763154 0.550354 -3.113301 5.454340 -2.835926 0.057621 5.868844 -6.873765 -20.139321 -3.677109 9.120206 -57.544696 -3.565573 9.947366 9.921923 -47.183255 8.186119 15.820956 -17.752197 -21.375977 15.716183 6.026928 4.460353 52.914342 6.523772 15.755831 0.882980 46.483620 19.955038 4.314537 18.597298 -22.875569 
